<?xml version="1.0" encoding="UTF-8"?>
<!DOCTYPE svg PUBLIC "-//W3C//DTD SVG 1.1//EN" "http://www.w3.org/Graphics/SVG/1.1/DTD/svg11.dtd">
<svg xmlns="http://www.w3.org/2000/svg" version="1.1" width="360px" height="360px" style="shape-rendering:geometricPrecision; text-rendering:geometricPrecision; image-rendering:optimizeQuality; fill-rule:evenodd; clip-rule:evenodd" xmlns:xlink="http://www.w3.org/1999/xlink">
<g><path style="opacity:1" fill="#fbfbfb" d="M -0.5,-0.5 C 119.5,-0.5 239.5,-0.5 359.5,-0.5C 359.5,119.5 359.5,239.5 359.5,359.5C 239.5,359.5 119.5,359.5 -0.5,359.5C -0.5,239.5 -0.5,119.5 -0.5,-0.5 Z"/></g>
<g><path style="opacity:1" fill="#f5b295" d="M 264.5,118.5 C 261.167,118.5 257.833,118.5 254.5,118.5C 254.829,124.537 254.496,130.537 253.5,136.5C 252.893,136.376 252.56,136.043 252.5,135.5C 253.49,129.69 253.823,123.69 253.5,117.5C 257.371,117.185 261.038,117.518 264.5,118.5 Z"/></g>
<g><path style="opacity:1" fill="#f16432" d="M 264.5,118.5 C 264.5,137.5 264.5,156.5 264.5,175.5C 263.5,175.5 262.5,175.5 261.5,175.5C 260.886,173.277 259.552,171.611 257.5,170.5C 246.131,179.101 235.631,178.101 226,167.5C 219.901,155.521 221.734,145.021 231.5,136C 238.531,131.735 245.531,131.568 252.5,135.5C 252.56,136.043 252.893,136.376 253.5,136.5C 254.496,130.537 254.829,124.537 254.5,118.5C 257.833,118.5 261.167,118.5 264.5,118.5 Z"/></g>
<g><path style="opacity:1" fill="#f8d8ca" d="M 264.5,118.5 C 265.497,137.659 265.83,156.993 265.5,176.5C 263.901,176.768 262.568,176.434 261.5,175.5C 262.5,175.5 263.5,175.5 264.5,175.5C 264.5,156.5 264.5,137.5 264.5,118.5 Z"/></g>
<g><path style="opacity:1" fill="#f16332" d="M 128.5,144.5 C 124.167,144.5 119.833,144.5 115.5,144.5C 115.5,154.833 115.5,165.167 115.5,175.5C 115.167,175.5 114.833,175.5 114.5,175.5C 111.5,175.5 108.5,175.5 105.5,175.5C 105.5,165.167 105.5,154.833 105.5,144.5C 103.833,144.5 102.167,144.5 100.5,144.5C 100.5,141.167 100.5,137.833 100.5,134.5C 102.167,134.5 103.833,134.5 105.5,134.5C 105.176,124.314 109.843,117.481 119.5,114C 123.486,113.501 127.486,113.334 131.5,113.5C 131.5,117.167 131.5,120.833 131.5,124.5C 127.445,124.176 123.445,124.509 119.5,125.5C 116.279,127.613 114.945,130.613 115.5,134.5C 119.833,134.5 124.167,134.5 128.5,134.5C 128.5,137.833 128.5,141.167 128.5,144.5 Z"/></g>
<g><path style="opacity:1" fill="#f16433" d="M 146.5,132.5 C 167.141,132.975 175.308,143.308 171,163.5C 164.379,175.624 154.545,179.124 141.5,174C 128.945,163.905 127.279,152.238 136.5,139C 139.859,136.734 143.192,134.567 146.5,132.5 Z"/></g>
<g><path style="opacity:1" fill="#f9f6f3" d="M 147.5,143.5 C 159.041,143.032 163.707,148.365 161.5,159.5C 158.324,164.916 153.657,166.749 147.5,165C 141.823,161.364 139.99,156.197 142,149.5C 143.36,146.977 145.193,144.977 147.5,143.5 Z"/></g>
<g><path style="opacity:1" fill="#f6c8b4" d="M 100.5,144.5 C 102.167,144.5 103.833,144.5 105.5,144.5C 105.5,154.833 105.5,165.167 105.5,175.5C 108.5,175.5 111.5,175.5 114.5,175.5C 111.375,176.479 108.042,176.813 104.5,176.5C 104.5,166.167 104.5,155.833 104.5,145.5C 102.901,145.768 101.568,145.434 100.5,144.5 Z"/></g>
<g><path style="opacity:1" fill="#facfc9" d="M 128.5,144.5 C 124.702,145.483 120.702,145.817 116.5,145.5C 116.827,155.681 116.494,165.681 115.5,175.5C 115.5,165.167 115.5,154.833 115.5,144.5C 119.833,144.5 124.167,144.5 128.5,144.5 Z"/></g>
<g><path style="opacity:1" fill="#f9f6f5" d="M 238.5,143.5 C 250.34,142.501 255.173,147.834 253,159.5C 250.081,165.025 245.581,166.858 239.5,165C 237,163.833 235.167,162 234,159.5C 233.333,155.833 233.333,152.167 234,148.5C 235.758,146.917 237.258,145.25 238.5,143.5 Z"/></g>
<g><path style="opacity:1" fill="#f06534" d="M 193.5,132.5 C 212.303,133.139 220.47,142.806 218,161.5C 211.711,175.23 201.545,179.397 187.5,174C 176.355,166.196 173.522,156.03 179,143.5C 182.562,137.988 187.396,134.322 193.5,132.5 Z"/></g>
<g><path style="opacity:1" fill="#f9f6f5" d="M 193.5,143.5 C 206.364,143.362 210.697,149.362 206.5,161.5C 202.886,165.165 198.553,166.332 193.5,165C 187.823,161.364 185.99,156.197 188,149.5C 189.36,146.977 191.193,144.977 193.5,143.5 Z"/></g>
<g><path style="opacity:1" fill="#f06434" d="M 58.5,168.5 C 66.4833,168.305 70.9833,172.305 72,180.5C 75.2508,184.422 79.0841,187.588 83.5,190C 72.8381,192.532 63.6715,190.032 56,182.5C 53.5048,177.13 54.3381,172.464 58.5,168.5 Z"/></g>
<g><path style="opacity:1" fill="#f16433" d="M 73.5,201.5 C 78.0672,201.744 82.4006,202.91 86.5,205C 83.8333,207.667 81.1667,210.333 78.5,213C 71.7174,214.218 68.8841,211.384 70,204.5C 71.1451,203.364 72.3117,202.364 73.5,201.5 Z"/></g>
<g><path style="opacity:1" fill="#f9ddd0" d="M 72.5,204.5 C 73.5,204.5 74.5,204.5 75.5,204.5C 75.5,205.833 75.5,207.167 75.5,208.5C 74.5,208.5 73.5,208.5 72.5,208.5C 72.5,207.167 72.5,205.833 72.5,204.5 Z"/></g>
<g><path style="opacity:1" fill="#f16433" d="M 105.5,185.5 C 105.56,184.957 105.893,184.624 106.5,184.5C 145.362,208.966 187.028,214.799 231.5,202C 242.566,198.211 253.232,193.878 263.5,189C 247.861,208.322 227.528,218.989 202.5,221C 190.833,221.667 179.167,221.667 167.5,221C 157.436,218.615 147.436,216.282 137.5,214C 130.846,220.473 126.679,228.307 125,237.5C 124.74,243.551 124.073,249.551 123,255.5C 117.105,265.242 108.938,267.742 98.5,263C 87.9189,253.25 85.7522,241.75 92,228.5C 98.2435,216.589 107.41,207.756 119.5,202C 114.636,196.639 109.97,191.139 105.5,185.5 Z"/></g>
<g><path style="opacity:1" fill="#f8eee6" d="M 120.5,205.5 C 123.157,205.162 125.49,205.829 127.5,207.5C 118.18,212.997 112.013,220.997 109,231.5C 108.489,220.852 112.322,212.186 120.5,205.5 Z"/></g>
</svg>
